<?xml version="1.0" encoding="UTF-8"?>
<svg version="1.1" xmlns="http://www.w3.org/2000/svg" width="32" height="32">
<path d="M0 0 C10.56 0 21.12 0 32 0 C32 10.56 32 21.12 32 32 C21.44 32 10.88 32 0 32 C0 21.44 0 10.88 0 0 Z " fill="#01BDCE" transform="translate(0,0)"/>
<path d="M0 0 C1.98 0 3.96 0 6 0 C6.33 0.66 6.66 1.32 7 2 C11.62 2 16.24 2 21 2 C21 4 21 6 21 8 C19.68 8.33 18.36 8.66 17 9 C18.65 9 20.3 9 22 9 C22.33 9.99 22.66 10.98 23 12 C20.36 11.67 17.72 11.34 15 11 C14.731875 11.78375 14.46375 12.5675 14.1875 13.375 C13 16 13 16 10 18 C7.66800612 18.07905064 5.33167378 18.08798769 3 18 C2.67 16.02 2.34 14.04 2 12 C1.34 12 0.68 12 0 12 C-0.66 11.01 -1.32 10.02 -2 9 C-2.99 8.67 -3.98 8.34 -5 8 C-5 7.01 -5 6.02 -5 5 C-1.73045798 5.56371414 -0.17424117 6.49962266 2 9 C1.67 8.2575 1.34 7.515 1 6.75 C0 4 0 4 0 0 Z " fill="#10CFDF" transform="translate(7,10)"/>
<path d="M0 0 C0.66 0 1.32 0 2 0 C2 4.62 2 9.24 2 14 C-8.56 14 -19.12 14 -30 14 C-29.67 11.36 -29.34 8.72 -29 6 C-27.02 6.495 -27.02 6.495 -25 7 C-25.33 6.01 -25.66 5.02 -26 4 C-25.01 3.67 -24.02 3.34 -23 3 C-22.34 3.33 -21.68 3.66 -21 4 C-20.7525 4.825 -20.505 5.65 -20.25 6.5 C-19.63125 7.7375 -19.63125 7.7375 -19 9 C-15.94727535 9.89830839 -15.94727535 9.89830839 -13 10 C-12.67 9.01 -12.34 8.02 -12 7 C-11.67 7.33 -11.34 7.66 -11 8 C-10.62875 7.175 -10.2575 6.35 -9.875 5.5 C-9.25625 4.675 -8.6375 3.85 -8 3 C-4.84010585 2.61307419 -2.86120256 2.56939872 0 4 C0 2.68 0 1.36 0 0 Z " fill="#03BECE" transform="translate(30,18)"/>
<path d="M0 0 C3.3 0 6.6 0 10 0 C10.33 1.32 10.66 2.64 11 4 C11.99 3.67 12.98 3.34 14 3 C14.99 3.99 15.98 4.98 17 6 C14 8 14 8 11 8 C11 9.65 11 11.3 11 13 C10.67 12.01 10.34 11.02 10 10 C9.01 10 8.02 10 7 10 C7.66 12.97 8.32 15.94 9 19 C8.01 18.67 7.02 18.34 6 18 C5.67 17.34 5.34 16.68 5 16 C4.01 15.67 3.02 15.34 2 15 C2 15.99 2 16.98 2 18 C3.32 18.33 4.64 18.66 6 19 C6 22 6 22 5 25 C4.01 25 3.02 25 2 25 C1.34 25.99 0.68 26.98 0 28 C0 18.76 0 9.52 0 0 Z " fill="#08D7E6" transform="translate(0,0)"/>
<path d="M0 0 C1.95979427 0.28168297 3.91782378 0.57566717 5.875 0.875 C6.96554688 1.03742187 8.05609375 1.19984375 9.1796875 1.3671875 C12 2 12 2 14 4 C14.1953125 6.3828125 14.1953125 6.3828125 14.125 9.125 C14.10695313 10.03507813 14.08890625 10.94515625 14.0703125 11.8828125 C14.04710938 12.58148438 14.02390625 13.28015625 14 14 C13.34 14 12.68 14 12 14 C11.67 14.66 11.34 15.32 11 16 C9.35 15.67 7.7 15.34 6 15 C6.33 14.34 6.66 13.68 7 13 C7.99 13.33 8.98 13.66 10 14 C10 13.34 10 12.68 10 12 C8.68 11.67 7.36 11.34 6 11 C7.65 11 9.3 11 11 11 C9.05878466 8.59587188 9.05878466 8.59587188 5.5 8.9375 C4.345 8.958125 3.19 8.97875 2 9 C1.34 8.67 0.68 8.34 0 8 C0 7.34 0 6.68 0 6 C-0.66 5.67 -1.32 5.34 -2 5 C-1.01 5 -0.02 5 1 5 C0.67 3.35 0.34 1.7 0 0 Z " fill="#09D9E8" transform="translate(18,4)"/>
<path d="M0 0 C4.86115742 0.41667064 6.76394421 2.50156131 10 6 C10.66 6.33 11.32 6.66 12 7 C12 6.34 12 5.68 12 5 C18.27 5 24.54 5 31 5 C31 5.99 31 6.98 31 8 C20.44 8 9.88 8 -1 8 C-0.67 5.36 -0.34 2.72 0 0 Z " fill="#01A9B8" transform="translate(1,24)"/>
<path d="M0 0 C4.62 0 9.24 0 14 0 C14 2 14 4 14 6 C12.68 6.33 11.36 6.66 10 7 C11.65 7 13.3 7 15 7 C15.33 7.99 15.66 8.98 16 10 C13.36 9.34 10.72 8.68 8 8 C8 6.35 8 4.7 8 3 C5.03 2.505 5.03 2.505 2 2 C2.33 2.66 2.66 3.32 3 4 C4.32 4 5.64 4 7 4 C7 4.99 7 5.98 7 7 C5.0085944 7.38133299 3.00720923 7.71325582 1 8 C0.67 7.67 0.34 7.34 0 7 C0 4.69 0 2.38 0 0 Z " fill="#D9F6F8" transform="translate(14,12)"/>
<path d="M0 0 C1.98 0 3.96 0 6 0 C6.08090971 1.62418745 6.13914995 3.24951745 6.1875 4.875 C6.22230469 5.77992187 6.25710938 6.68484375 6.29296875 7.6171875 C6.19628906 8.40351563 6.09960938 9.18984375 6 10 C3 12 3 12 0 12 C-0.66 11.01 -1.32 10.02 -2 9 C-2.99 8.67 -3.98 8.34 -5 8 C-5 7.01 -5 6.02 -5 5 C-1.73045798 5.56371414 -0.17424117 6.49962266 2 9 C1.67 8.2575 1.34 7.515 1 6.75 C0 4 0 4 0 0 Z " fill="#C3F0F2" transform="translate(7,10)"/>
<path d="M0 0 C0.99 0.33 1.98 0.66 3 1 C4.1875 3.5625 4.1875 3.5625 5 6 C6.134375 6.12375 7.26875 6.2475 8.4375 6.375 C9.613125 6.58125 10.78875 6.7875 12 7 C12.33 7.66 12.66 8.32 13 9 C10.03 8.505 10.03 8.505 7 8 C7 8.66 7 9.32 7 10 C6.38125 9.649375 5.7625 9.29875 5.125 8.9375 C4.42375 8.628125 3.7225 8.31875 3 8 C2.01 8.495 2.01 8.495 1 9 C0.01 6.36 -0.98 3.72 -2 1 C-1.34 0.67 -0.68 0.34 0 0 Z " fill="#03B4C6" transform="translate(6,21)"/>
<path d="M0 0 C1.98 0.99 3.96 1.98 6 3 C6 6 6 6 5 9 C4.01 9 3.02 9 2 9 C1.34 9.99 0.68 10.98 0 12 C0 8.04 0 4.08 0 0 Z " fill="#10C8D4" transform="translate(0,16)"/>
<path d="M0 0 C4.29 0 8.58 0 13 0 C13 0.99 13 1.98 13 3 C10 4 10 4 7 3 C5.00038436 2.96079185 2.99950636 2.95556653 1 3 C0.67 2.01 0.34 1.02 0 0 Z " fill="#01B0C1" transform="translate(14,0)"/>
<path d="M0 0 C2.31 0.66 4.62 1.32 7 2 C5.68 2.33 4.36 2.66 3 3 C3.33 4.98 3.66 6.96 4 9 C2.68 8.67 1.36 8.34 0 8 C0 7.34 0 6.68 0 6 C-0.66 5.67 -1.32 5.34 -2 5 C-1.01 5 -0.02 5 1 5 C0.67 3.35 0.34 1.7 0 0 Z M7 1 C9 2 9 2 9 2 Z " fill="#04D0E0" transform="translate(18,4)"/>
<path d="M0 0 C2.96175123 0.61277612 4.38058783 1.25372522 7 3 C7 2.34 7 1.68 7 1 C7.99 1.33 8.98 1.66 10 2 C10 2.66 10 3.32 10 4 C8.54176788 4.0270043 7.08339325 4.04639787 5.625 4.0625 C4.81289062 4.07410156 4.00078125 4.08570313 3.1640625 4.09765625 C1 4 1 4 -1 3 C-0.67 2.01 -0.34 1.02 0 0 Z " fill="#0197AA" transform="translate(6,28)"/>
<path d="M0 0 C3.26954202 0.56371414 4.82575883 1.49962266 7 4 C7.33 3.01 7.66 2.02 8 1 C8 2.98 8 4.96 8 7 C7.01 7 6.02 7 5 7 C4.34 6.01 3.68 5.02 3 4 C2.01 3.67 1.02 3.34 0 3 C0 2.01 0 1.02 0 0 Z " fill="#E8F9F9" transform="translate(2,15)"/>
<path d="M0 0 C2.97 0.495 2.97 0.495 6 1 C6 2.65 6 4.3 6 6 C7.32 6.33 8.64 6.66 10 7 C7.125 7.125 7.125 7.125 4 7 C3.34 6.34 2.68 5.68 2 5 C2.99 5 3.98 5 5 5 C4.67 4.34 4.34 3.68 4 3 C1.97536745 2.34786708 1.97536745 2.34786708 0 2 C0 1.34 0 0.68 0 0 Z " fill="#46D1DD" transform="translate(16,14)"/>
<path d="M0 0 C0.66 0 1.32 0 2 0 C2 2.97 2 5.94 2 9 C1.01 9 0.02 9 -1 9 C-1.33 7.68 -1.66 6.36 -2 5 C-1.34 5 -0.68 5 0 5 C0 3.35 0 1.7 0 0 Z " fill="#04C6D6" transform="translate(30,18)"/>
<path d="M0 0 C1.98 0 3.96 0 6 0 C6.33 1.32 6.66 2.64 7 4 C5.35 4.33 3.7 4.66 2 5 C2 4.01 2 3.02 2 2 C1.34 2 0.68 2 0 2 C0 1.34 0 0.68 0 0 Z " fill="#09BBCB" transform="translate(11,8)"/>
<path d="M0 0 C0.33 0.99 0.66 1.98 1 3 C1.99 3.33 2.98 3.66 4 4 C4 4.66 4 5.32 4 6 C3.01 6 2.02 6 1 6 C0.34 6.99 -0.32 7.98 -1 9 C-1.09765625 2.84765625 -1.09765625 2.84765625 -1 1 C-0.67 0.67 -0.34 0.34 0 0 Z " fill="#03CEDB" transform="translate(1,19)"/>
<path d="M0 0 C2.31 0.33 4.62 0.66 7 1 C7 1.99 7 2.98 7 4 C5.02 4.33 3.04 4.66 1 5 C0.67 3.35 0.34 1.7 0 0 Z " fill="#E8F9F9" transform="translate(14,15)"/>
</svg>
